@startuml

rectangle "Staff Aggregate" #bbffdd{
class Staff <<AggregateRoot>> <<Entity>>
    class StaffID << (V, pink) Value Object >> <<identifier>>{
        - String id
    }
    note right of StaffID
        generated by the system
        format (N|D|O)yyyynnnnn
        N - nurse  D - doctor  O - other
        yyyy - year of recruitment
        nnnnn - sequential number
    end note
    class LicenseNumber << (V, pink) Value Object >> {
        --unique--
        - String licenseNumber
    }
    note left of LicenseNumber
        assigned by the professional guild
        the admin will enter and the system records it
    end note
    class Name << (V, pink) Value Object >>{
            - String firstName
            - String lastName
            - String fullName
    }

    class ContactInfo << (V, pink) Value Object >>{
        --unique--
        - String email
        - String phoneNumber
    }
    class AvailabilitySlots << (V, pink) Value Object >>{
        - String availability
    }
    class Status << (V, pink) Value Object >>{
            - bool active
    }
    note top of Status
        active or desactive
    end note

    Staff "1" -up-> "1" StaffID : is identified by
    Staff "1" -left-> "1" LicenseNumber : owns a
    Staff "1" -right-> "1" Name : is associated with
    Staff "1" --> "1" ContactInfo : owns a
    Staff "1" --> "*" AvailabilitySlots : presents
    Staff "1" -up-> "1" Status : owns a
}

@enduml
